<svg xmlns="http://www.w3.org/2000/svg" width="1200" height="700" viewBox="0 0 1200 700">
  <rect width="1200" height="700" fill="#f4f1ec"/>
  <rect x="40" y="30" width="1120" height="60" rx="12" fill="#1f2a2e"/>
  <text x="70" y="68" font-family="Verdana" font-size="24" fill="#f4f1ec">Urgencio — Accueil</text>

  <rect x="40" y="110" width="1120" height="350" rx="16" fill="#d8e6e8" stroke="#1f2a2e" stroke-width="2"/>
  <text x="60" y="140" font-family="Verdana" font-size="16" fill="#1f2a2e">Carte des hôpitaux</text>

  <circle cx="240" cy="260" r="12" fill="#2e8b57"/>
  <circle cx="520" cy="200" r="12" fill="#c0392b"/>
  <circle cx="760" cy="300" r="12" fill="#2e8b57"/>
  <circle cx="980" cy="240" r="12" fill="#2e8b57"/>

  <rect x="40" y="480" width="360" height="170" rx="14" fill="#ffffff" stroke="#1f2a2e"/>
  <rect x="420" y="480" width="360" height="170" rx="14" fill="#ffffff" stroke="#1f2a2e"/>
  <rect x="800" y="480" width="360" height="170" rx="14" fill="#ffffff" stroke="#1f2a2e"/>

  <text x="60" y="520" font-family="Verdana" font-size="16" fill="#1f2a2e">Hôpital Saint-Antoine</text>
  <text x="60" y="548" font-family="Verdana" font-size="12" fill="#526066">Paris</text>
  <text x="60" y="575" font-family="Verdana" font-size="12" fill="#2e8b57">Disponibilité: OK</text>

  <text x="440" y="520" font-family="Verdana" font-size="16" fill="#1f2a2e">Hôpital Édouard Herriot</text>
  <text x="440" y="548" font-family="Verdana" font-size="12" fill="#526066">Lyon</text>
  <text x="440" y="575" font-family="Verdana" font-size="12" fill="#c0392b">Disponibilité: Saturé</text>

  <text x="820" y="520" font-family="Verdana" font-size="16" fill="#1f2a2e">Hôpital de la Timone</text>
  <text x="820" y="548" font-family="Verdana" font-size="12" fill="#526066">Marseille</text>
  <text x="820" y="575" font-family="Verdana" font-size="12" fill="#2e8b57">Disponibilité: OK</text>
</svg>
